<svg aria-hidden="true" style="position: absolute; width: 0; height: 0; overflow: hidden;" version="1.1" xmlns="http://www.w3.org/2000/svg" xmlns:xlink="http://www.w3.org/1999/xlink">
<defs>
<symbol id="icon-x" viewBox="0 0 32 32">
<path stroke-linejoin="round" stroke-linecap="round" stroke-miterlimit="4" stroke-width="2.4" d="M24 8l-16 16"></path>
<path stroke-linejoin="round" stroke-linecap="round" stroke-miterlimit="4" stroke-width="2.4" d="M8 8l16 16"></path>
</symbol>
<svg aria-hidden="true" style="position: absolute; width: 0; height: 0; overflow: hidden;" version="1.1" xmlns="http://www.w3.org/2000/svg" xmlns:xlink="http://www.w3.org/1999/xlink">
<defs>
<symbol id="icon-heart" viewBox="0 0 32 32">
<path fill="none" stroke="#fff" style="stroke: var(--color1, #fff)" stroke-linejoin="round" stroke-linecap="round" stroke-miterlimit="4" stroke-width="2.6667" d="M27.787 6.147c-0.681-0.681-1.49-1.222-2.38-1.591s-1.844-0.559-2.807-0.559c-0.963 0-1.917 0.19-2.807 0.559s-1.698 0.909-2.38 1.591l-1.413 1.413-1.413-1.413c-1.376-1.376-3.241-2.148-5.187-2.148s-3.811 0.773-5.187 2.148c-1.376 1.376-2.148 3.241-2.148 5.187s0.773 3.811 2.148 5.187l11.787 11.787 11.787-11.787c0.681-0.681 1.222-1.49 1.591-2.38s0.559-1.844 0.559-2.807c0-0.963-0.19-1.917-0.559-2.807s-0.909-1.699-1.591-2.38z"></path>
</symbol>
<symbol id="icon-active" viewBox="0 0 32 32">
<path fill="#3470ff" style="fill: var(--color1, #3470ff); stroke: var(--color1, #3470ff)" stroke="#3470ff" stroke-linejoin="round" stroke-linecap="round" stroke-miterlimit="4" stroke-width="1.7778" d="M27.787 6.147c-0.681-0.681-1.49-1.222-2.38-1.591s-1.844-0.559-2.807-0.559c-0.963 0-1.917 0.19-2.807 0.559s-1.698 0.909-2.38 1.591l-1.413 1.413-1.413-1.413c-1.376-1.376-3.241-2.148-5.187-2.148s-3.811 0.773-5.187 2.148c-1.376 1.376-2.148 3.241-2.148 5.187s0.773 3.811 2.148 5.187l11.787 11.787 11.787-11.787c0.681-0.681 1.222-1.49 1.591-2.38s0.559-1.844 0.559-2.807c0-0.963-0.19-1.917-0.559-2.807s-0.909-1.699-1.591-2.38z"></path>
</symbol>
<symbol id="icon-arrow-top" viewBox="0 0 32 32">
<path fill="#fff" style="fill: var(--color1, #fff)" d="M15.349 8.574c0.375-0.321 0.927-0.321 1.302 0l9.333 8c0.419 0.359 0.468 0.991 0.109 1.41s-0.991 0.468-1.41 0.108l-8.683-7.442-8.683 7.442c-0.419 0.359-1.051 0.311-1.41-0.108s-0.311-1.051 0.108-1.41l9.333-8zM6.016 21.907l9.333-8c0.375-0.321 0.927-0.321 1.302 0l9.333 8c0.419 0.359 0.468 0.991 0.109 1.41s-0.991 0.468-1.41 0.108l-8.683-7.442-8.683 7.442c-0.419 0.359-1.051 0.311-1.41-0.108s-0.311-1.051 0.108-1.41z"></path>
</symbol>
</defs>
</svg>


